<?xml version="1.0" encoding="utf-8"?>
<!-- Generator: Adobe Illustrator 23.0.2, SVG Export Plug-In . SVG Version: 6.00 Build 0)  -->
<svg version="1.1" id="レイヤー_1" xmlns="http://www.w3.org/2000/svg" xmlns:xlink="http://www.w3.org/1999/xlink" x="0px"
	 y="0px" viewBox="0 0 337.7 321.8" style="enable-background:new 0 0 337.7 321.8;" xml:space="preserve">
<style type="text/css">
	.st0{fill:#C9AA82;}
	.st1{fill:#C9AC83;}
	.st2{enable-background:new    ;}
</style>
<g>
	<g>
		<path class="st0" d="M201.9,110.5c0.6,0,1.4,0,2.1,0.6c1.2,0.8,1.4,2.2,1.4,3c0,1.2-0.4,2.4-1.4,3c-0.7,0.4-1.4,0.4-2.3,0.4h-2.3
			v-7.1L201.9,110.5z M200.7,116.4h0.6c1,0,1.4-0.1,1.6-0.2c0.5-0.2,1.1-0.6,1.1-2.1c0-0.7-0.1-1.8-1.1-2.2
			c-0.4-0.2-0.6-0.2-1.5-0.2h-0.7V116.4z"/>
		<path class="st0" d="M201.7,117.8h-2.4v-7.3h2.7c0.5,0,1.4,0,2.2,0.6c1.2,0.9,1.4,2.3,1.4,3.2c0,1.5-0.6,2.6-1.5,3.2
			C203.3,117.7,202.5,117.8,201.7,117.8z M199.5,117.5h2.1c0.9,0,1.5,0,2.2-0.4c0.9-0.5,1.4-1.6,1.4-2.9c0-0.8-0.2-2.1-1.3-2.9
			c-0.7-0.5-1.3-0.5-2-0.5h-2.4V117.5z M201.3,116.6h-0.7v-5h0.8c0.9,0,1.1,0,1.5,0.2c1.2,0.5,1.2,1.9,1.2,2.3
			c0,1.6-0.7,2.1-1.1,2.2C202.7,116.5,202.3,116.6,201.3,116.6z M200.9,116.3h0.4c1,0,1.3-0.1,1.6-0.2c0.4-0.2,1-0.6,1-2
			c0-1.1-0.3-1.8-1-2.1c-0.3-0.2-0.5-0.2-1.4-0.2h-0.6V116.3z"/>
	</g>
	<g>
		<path class="st0" d="M209.8,111.7v1.7h3.4v1.1h-3.4v1.9h4v1.2h-5.3v-7.1h5v1.2L209.8,111.7z"/>
		<path class="st0" d="M214,117.8h-5.6v-7.3h5.3v1.5H210v1.4h3.4v1.4H210v1.6h4V117.8z M208.7,117.5h5v-0.9h-4v-2.2h3.4v-0.9h-3.4
			v-1.9h3.7v-0.9h-4.7V117.5z"/>
	</g>
	<g>
		<path class="st0" d="M218.7,114.5c-0.4-0.1-0.7-0.2-0.9-0.2c-0.3-0.1-1.2-0.6-1.2-1.7c0-1.3,1.1-2.2,2.8-2.2
			c1.5,0,2.3,0.8,2.8,1.4l-1.1,0.8c-0.2-0.3-0.7-1.1-1.8-1.1c-0.7,0-1.3,0.3-1.3,0.9c0,0.6,0.7,0.7,1.3,0.8l0.7,0.2
			c0.9,0.2,2.3,0.6,2.3,2.1c0,1.6-1.5,2.3-3,2.3c-0.4,0-0.8,0-1.3-0.2c-0.5-0.1-1.3-0.5-1.8-1.3l1.1-0.8c0.2,0.3,0.7,1.1,2.2,1.1
			c0.2,0,0.5,0,0.8-0.1c0.5-0.2,0.6-0.6,0.6-0.8c0-0.4-0.3-0.6-0.5-0.7c-0.2-0.1-0.2-0.1-0.8-0.2L218.7,114.5z"/>
		<path class="st0" d="M219.3,117.9c-0.5,0-0.9-0.1-1.3-0.2c-0.8-0.3-1.5-0.7-1.9-1.4l-0.1-0.1l1.3-0.9l0.1,0.1c0.2,0.2,0.7,1,2.1,1
			c0.2,0,0.5,0,0.7-0.1c0.3-0.1,0.5-0.4,0.5-0.7c0-0.3-0.2-0.5-0.4-0.6l0,0c-0.1,0-0.2-0.1-0.8-0.2l-0.9-0.2
			c-0.5-0.1-0.7-0.2-0.9-0.3c-0.5-0.2-1.3-0.7-1.3-1.9c0-1.4,1.2-2.3,2.9-2.3c1.3,0,2.2,0.5,3,1.5l0.1,0.1l-1.3,1l-0.1-0.1
			c-0.2-0.4-0.7-1-1.7-1c-0.6,0-1.2,0.2-1.2,0.7c0,0.4,0.4,0.5,1.1,0.7l0.9,0.2c0.8,0.2,2.4,0.5,2.4,2.2
			C222.5,117.3,220.8,117.9,219.3,117.9z M216.4,116.3c0.5,0.7,1.2,1,1.7,1.2c0.4,0.1,0.8,0.2,1.2,0.2c1.4,0,2.9-0.6,2.9-2.1
			c0-1.3-1-1.7-2.2-2l-0.9-0.2c-0.6-0.1-1.3-0.3-1.3-1c0-0.6,0.6-1,1.5-1c1.1,0,1.6,0.6,1.9,1l0.8-0.6c-0.7-0.8-1.5-1.3-2.6-1.3
			c-1.6,0-2.6,0.8-2.6,2.1c0,1,0.7,1.4,1.1,1.6c0.2,0.1,0.4,0.1,0.9,0.2l0.8,0.2c0.6,0.1,0.7,0.2,0.8,0.2l0,0
			c0.2,0.1,0.6,0.3,0.6,0.8c0,0.2-0.1,0.7-0.7,0.9c-0.3,0.1-0.6,0.1-0.8,0.1c-1.4,0-2-0.7-2.2-1L216.4,116.3z"/>
	</g>
	<g>
		<path class="st0" d="M225.5,117.6v-7.1h1.3v7.1H225.5z"/>
		<path class="st0" d="M226.9,117.8h-1.6v-7.3h1.6V117.8z M225.6,117.5h1v-6.8h-1V117.5z"/>
	</g>
	<g>
		<path class="st0" d="M235.3,117c-0.6,0.6-1.3,0.8-1.9,0.8c-2.2,0-3.3-1.7-3.3-3.6c0-2.2,1.5-3.8,3.4-3.8c1.5,0,2.6,0.9,3,2.1
			l-1.3,0.5c-0.1-0.4-0.5-1.4-1.7-1.4c-1.3,0-2,1.2-2,2.6c0,1.6,0.9,2.4,2,2.4c0.7,0,1.6-0.4,1.7-1.6h-1.8v-1.2h3v3.9h-1.1
			L235.3,117z"/>
		<path class="st0" d="M233.4,117.9c-2.4,0-3.5-2-3.5-3.8c0-2.3,1.5-3.9,3.6-3.9c1.4,0,2.6,0.8,3.1,2.2l0,0.1l-1.5,0.6l0-0.1
			c-0.3-0.9-0.8-1.3-1.6-1.3c-1.4,0-1.8,1.2-1.8,2.4c0,1.4,0.7,2.3,1.9,2.3c0.3,0,1.4-0.1,1.6-1.4h-1.7v-1.4h3.3v4.1h-1.4v-0.4
			C234.7,117.7,234.1,117.9,233.4,117.9z M233.5,110.5c-1.9,0-3.3,1.5-3.3,3.6c0,1.7,1,3.5,3.2,3.5c0.7,0,1.3-0.2,1.8-0.7l0.2-0.2
			v0.8h0.8v-3.6h-2.7v0.9h1.8l0,0.2c-0.1,1.3-1.1,1.8-1.9,1.8c-1.3,0-2.1-1-2.1-2.6c0-1.6,0.8-2.7,2.1-2.7c0.8,0,1.5,0.5,1.8,1.4
			l1-0.4C235.8,111.2,234.7,110.5,233.5,110.5z"/>
	</g>
	<g>
		<path class="st0" d="M244.2,117.6l-3.1-4.9l0.1,4.9h-1.3v-7.1h1.2l3.1,5l-0.2-5h1.3v7.1H244.2z"/>
		<path class="st0" d="M245.5,117.8h-1.4l0-0.1l-2.8-4.5l0.1,4.6h-1.6v-7.3h1.4l0,0.1l2.8,4.5l-0.1-4.6h1.6V117.8z M244.3,117.5h0.9
			v-6.8h-1l0.2,5.4l-3.4-5.4h-1v6.8h1l-0.1-5.3L244.3,117.5z"/>
	</g>
	<path class="st0" d="M254.4,117.7c-0.7,0-1-0.3-1.5-0.9c-0.2,0.4-0.9,0.9-1.9,0.9c-1.4,0-2.2-0.9-2.2-2c0-0.4,0.1-0.9,0.5-1.4
		c0.3-0.4,0.6-0.6,1.3-1.1c-0.2-0.2-0.6-0.8-0.6-1.5c0-0.8,0.5-1.4,1.4-1.4c0.9,0,1.4,0.5,1.4,1.2c0,0.4-0.1,0.7-0.3,1
		c-0.3,0.4-0.6,0.6-1,0.9c0.3,0.4,1.1,1.7,1.5,2.2c0.2-0.6,0.2-1,0.2-1.3h0.6c0,0.3-0.1,1.1-0.5,1.8c0.4,0.5,0.4,0.6,0.6,0.7
		c0.2,0.2,0.5,0.2,0.6,0.2L254.4,117.7z M249.4,115.7c0,0.8,0.7,1.4,1.6,1.4c0.9,0,1.4-0.6,1.6-0.8c-0.6-0.8-0.6-0.9-0.8-1.2
		c-0.1-0.2-0.7-1.1-0.9-1.3C250.3,114.2,249.4,114.7,249.4,115.7L249.4,115.7z M250.6,111.8c0,0.4,0.2,0.8,0.5,1.2
		c0.5-0.3,1.1-0.7,1.1-1.3c0-0.3-0.2-0.7-0.7-0.7C250.7,111,250.5,111.5,250.6,111.8L250.6,111.8z"/>
	<g>
		<path class="st0" d="M261.6,117.6l-0.4-1.4h-2.6l-0.4,1.4h-1.4l2.4-7.1h1.5l2.4,7.1H261.6z M260.8,115.1l-1-3.2l-1,3.2H260.8z"/>
		<path class="st0" d="M263.2,117.8h-1.7l-0.4-1.4h-2.4l-0.4,1.4h-1.7l0.1-0.2l2.4-7.2h1.7l0,0.1L263.2,117.8z M261.7,117.5h1.1
			l-2.3-6.8h-1.3l-2.3,6.8h1.1l0.4-1.4h2.9L261.7,117.5z M261,115.2h-2.3l1.2-3.9L261,115.2z M259.1,114.9h1.6l-0.8-2.6L259.1,114.9
			z"/>
	</g>
	<g>
		<path class="st0" d="M268.2,110.5c0.9,0,1.6,0,2.2,0.5c0.4,0.4,0.8,0.9,0.8,1.7c0,1.3-1,1.8-1.4,1.9l1.6,2.9h-1.5l-1.4-2.6h-1.2
			v2.6h-1.3v-7.1L268.2,110.5z M267.2,113.9h0.5c0.5,0,0.6,0,0.9,0c0.3,0,1.2-0.1,1.2-1.1c0-0.2,0-0.7-0.6-0.9
			c-0.3-0.1-0.6-0.2-1.4-0.2h-0.6V113.9z"/>
		<path class="st0" d="M271.5,117.8h-1.8l-1.4-2.6h-1v2.6h-1.6v-7.3h2.4c0.9,0,1.6,0,2.3,0.5c0.4,0.3,0.8,0.9,0.8,1.9
			c0,1.3-0.9,1.8-1.3,2L271.5,117.8z M269.9,117.5h1.2l-1.5-2.8l0.2-0.1c0.3-0.1,1.3-0.5,1.3-1.8c0-0.7-0.3-1.2-0.7-1.6
			c-0.6-0.5-1.1-0.5-2.1-0.5h-2.1v6.8h1v-2.6h1.4L269.9,117.5z M267.7,114h-0.6v-2.5h0.8c0.8,0,1.1,0,1.5,0.2
			c0.3,0.1,0.6,0.5,0.6,1.1c0,0.4-0.2,1.2-1.4,1.2l-0.1,0C268.2,114,268.1,114,267.7,114z M267.4,113.8h0.3c0.4,0,0.6,0,0.8,0l0.1,0
			c0.7,0,1.1-0.3,1.1-0.9c0-0.4-0.2-0.7-0.5-0.8c-0.2-0.1-0.6-0.1-1.3-0.1h-0.5V113.8z"/>
	</g>
	<g>
		<path class="st0" d="M277,111.7v5.9h-1.3v-5.9h-1.9v-1.2h5.2v1.2H277z"/>
		<path class="st0" d="M277.2,117.8h-1.6v-5.9h-1.9v-1.5h5.5v1.5h-2V117.8z M275.8,117.5h1v-5.9h2v-0.9h-4.9v0.9h1.9V117.5z"/>
	</g>
	<g>
		<path class="st0" d="M222.3,125.7v1.8h2.9v1.1h-2.9v3H221v-7.1h4.7v1.2L222.3,125.7z"/>
		<path class="st0" d="M222.5,131.8h-1.6v-7.3h5v1.5h-3.4v1.5h3v1.4h-3V131.8z M221.1,131.5h1v-3h3v-0.8h-3v-2h3.4v-0.9h-4.4V131.5z
			"/>
	</g>
	<g>
		<path class="st0" d="M229.9,125.7v1.7h3.4v1.1h-3.4v1.9h4v1.2h-5.3v-7.1h5v1.2L229.9,125.7z"/>
		<path class="st0" d="M234,131.8h-5.6v-7.3h5.3v1.5H230v1.4h3.4v1.4H230v1.6h4V131.8z M228.7,131.5h5v-0.9h-4v-2.2h3.4v-0.9h-3.4
			v-1.9h3.7v-0.9h-4.7V131.5z"/>
	</g>
	<g>
		<path class="st0" d="M238.8,128.6c-0.4-0.1-0.7-0.2-0.9-0.2c-0.3-0.1-1.2-0.6-1.2-1.7c0-1.3,1.1-2.2,2.8-2.2
			c1.5,0,2.3,0.8,2.8,1.4l-1.1,0.8c-0.2-0.3-0.7-1.1-1.8-1.1c-0.7,0-1.3,0.3-1.3,0.9c0,0.6,0.7,0.7,1.3,0.8l0.7,0.2
			c0.9,0.2,2.3,0.6,2.3,2.1c0,1.6-1.5,2.3-3,2.3c-0.4,0-0.8,0-1.3-0.2c-0.5-0.1-1.3-0.5-1.8-1.3l1.1-0.8c0.2,0.3,0.7,1.1,2.2,1.1
			c0.2,0,0.5,0,0.8-0.1c0.5-0.2,0.6-0.6,0.6-0.8c0-0.4-0.3-0.6-0.5-0.7c-0.2-0.1-0.2-0.1-0.8-0.2L238.8,128.6z"/>
		<path class="st0" d="M239.4,131.9c-0.5,0-0.9-0.1-1.3-0.2c-0.8-0.3-1.5-0.7-1.9-1.4l-0.1-0.1l1.3-0.9l0.1,0.1c0.2,0.2,0.7,1,2.1,1
			c0.2,0,0.5,0,0.7-0.1c0.3-0.1,0.5-0.4,0.5-0.7c0-0.3-0.2-0.5-0.4-0.6l0,0c-0.1,0-0.2-0.1-0.8-0.2l-0.9-0.2
			c-0.5-0.1-0.7-0.2-0.9-0.3c-0.5-0.2-1.3-0.7-1.3-1.9c0-1.4,1.2-2.3,2.9-2.3c1.3,0,2.2,0.5,3,1.5l0.1,0.1l-1.3,1l-0.1-0.1
			c-0.2-0.4-0.7-1-1.7-1c-0.6,0-1.2,0.2-1.2,0.7c0,0.4,0.4,0.5,1.1,0.7l0.9,0.2c0.8,0.2,2.4,0.5,2.4,2.2
			C242.5,131.3,240.8,131.9,239.4,131.9z M236.5,130.3c0.5,0.7,1.2,1,1.7,1.2c0.4,0.1,0.8,0.2,1.2,0.2c1.4,0,2.9-0.6,2.9-2.1
			c0-1.3-1-1.7-2.2-2l-0.9-0.2c-0.6-0.1-1.3-0.3-1.3-1c0-0.6,0.6-1,1.5-1c1.1,0,1.6,0.6,1.9,1l0.8-0.6c-0.4-0.6-1.2-1.3-2.6-1.3
			c-1.6,0-2.6,0.8-2.6,2.1c0,1,0.7,1.4,1.1,1.6c0.2,0.1,0.4,0.1,0.9,0.2l0.8,0.2c0.6,0.1,0.7,0.2,0.8,0.2l0,0
			c0.2,0.1,0.6,0.3,0.6,0.8c0,0.2-0.1,0.7-0.7,0.9c-0.3,0.1-0.6,0.1-0.8,0.1c-1.4,0-2-0.7-2.2-1L236.5,130.3z"/>
	</g>
	<g>
		<path class="st0" d="M248.2,125.7v5.9h-1.3v-5.9H245v-1.2h5.2v1.2H248.2z"/>
		<path class="st0" d="M248.3,131.8h-1.6v-5.9h-1.9v-1.5h5.5v1.5h-1.9V131.8z M247,131.5h1v-5.9h1.9v-0.9h-4.9v0.9h1.9V131.5z"/>
	</g>
	<g>
		<path class="st0" d="M253.1,131.6v-7.1h1.3v7.1H253.1z"/>
		<path class="st0" d="M254.6,131.8H253v-7.3h1.6V131.8z M253.3,131.5h1v-6.8h-1V131.5z"/>
	</g>
	<g>
		<path class="st0" d="M259.4,131.6l-2.1-7.1h1.4l1.6,5.6l1.5-5.6h1.4l-2,7.1L259.4,131.6z"/>
		<path class="st0" d="M261.3,131.8h-2l0-0.1l-2.1-7.2h1.7l1.5,5.2l1.4-5.2h1.7l-0.1,0.2L261.3,131.8z M259.5,131.5h1.6l1.9-6.8H262
			l-1.6,6l-1.7-6h-1.1L259.5,131.5z"/>
	</g>
	<g>
		<path class="st0" d="M270.3,131.6l-0.4-1.4h-2.6l-0.4,1.4h-1.4l2.4-7.1h1.5l2.4,7.1H270.3z M269.5,129.1l-1-3.3l-1,3.3H269.5z"/>
		<path class="st0" d="M271.9,131.8h-1.7l-0.4-1.4h-2.4l-0.4,1.4h-1.7l0.1-0.2l2.4-7.2h1.7l0,0.1L271.9,131.8z M270.4,131.5h1.1
			l-2.3-6.8h-1.3l-2.3,6.8h1.1l0.4-1.4h2.9L270.4,131.5z M269.7,129.2h-2.3l1.2-3.9L269.7,129.2z M267.7,128.9h1.6l-0.8-2.6
			L267.7,128.9z"/>
	</g>
	<g>
		<path class="st0" d="M278.7,130.4v1.2h-4.1v-7.1h1.3v5.9H278.7z"/>
		<path class="st0" d="M278.9,131.8h-4.4v-7.4h1.6v5.9h2.8V131.8z M274.7,131.5h3.8v-0.9h-2.8v-5.9h-1V131.5z"/>
	</g>
	<g>
		<path class="st0" d="M256.7,138.3c1.5,0,2.3,1,2.3,2.3c0,1.4-0.8,2.2-3.2,4.3l3.2,0v0.8h-4.5v-0.7c0.6-0.4,1.5-1.1,2.1-1.7
			c1.1-1.1,1.5-1.7,1.5-2.6s-0.5-1.5-1.4-1.5c-0.8,0-1.4,0.5-1.4,1.3c0,0.2,0,0.2,0,0.4l-0.9-0.2
			C254.3,139.2,255.3,138.3,256.7,138.3L256.7,138.3z"/>
		<path class="st0" d="M259.1,145.8h-4.8v-0.9l0.1,0c0.6-0.4,1.4-1.1,2.1-1.7c1.1-1.1,1.5-1.7,1.5-2.5c0-0.9-0.5-1.4-1.3-1.4
			c-0.7,0-1.3,0.5-1.3,1.2c0,0.1,0,0.2,0,0.3l0,0.3l-1.2-0.2l0-0.1c-0.1-0.7,0.1-1.2,0.5-1.7c0.4-0.5,1.1-0.7,1.9-0.7
			c1.5,0,2.4,1,2.4,2.5c0,1.3-0.7,2.2-3,4.1l2.9,0V145.8z M254.6,145.5h4.2V145l-3.4,0l0.3-0.3c2.4-2,3.2-2.9,3.2-4.2
			c0-1.3-0.8-2.2-2.1-2.2c-0.7,0-1.3,0.2-1.7,0.7c-0.3,0.4-0.5,0.8-0.5,1.4l0.6,0.1c0-0.1,0-0.1,0-0.2c0-0.8,0.7-1.5,1.6-1.5
			c0.9,0,1.5,0.7,1.5,1.7c0,0.9-0.4,1.6-1.6,2.7c-0.7,0.6-1.5,1.3-2.1,1.7V145.5z"/>
	</g>
	<g>
		<path class="st0" d="M266.4,142.1c0,1.9-0.6,3.7-2.6,3.7s-2.6-1.8-2.6-3.7c0-2.1,0.8-3.8,2.7-3.8
			C265.8,138.3,266.4,140.2,266.4,142.1z M262.1,142.1c0,1.7,0.5,2.8,1.7,2.8c1.4,0,1.6-1.5,1.6-2.8c0-1.9-0.6-3-1.7-3
			C262.6,139.1,262.1,140.4,262.1,142.1z"/>
		<path class="st0" d="M263.8,145.9c-1.8,0-2.8-1.4-2.8-3.8c0-2.5,1.1-3.9,2.8-3.9c1.7,0,2.7,1.4,2.7,3.9
			C266.5,144.5,265.5,145.9,263.8,145.9z M263.8,138.4c-1.6,0-2.5,1.4-2.5,3.6c0,1.1,0.2,3.5,2.5,3.5c2.2,0,2.5-2.2,2.5-3.5
			C266.3,141,266,138.4,263.8,138.4z M263.8,145.1c-1.2,0-1.9-1.1-1.9-3c0-2,0.7-3.2,1.9-3.2c0.8,0,1.8,0.5,1.8,3.2
			C265.6,144.1,265,145.1,263.8,145.1z M263.8,139.2c-1.4,0-1.6,2-1.6,2.9c0,1.2,0.3,2.7,1.6,2.7c1,0,1.5-0.9,1.5-2.7
			C265.3,140.8,265.1,139.2,263.8,139.2z"/>
	</g>
	<g>
		<path class="st0" d="M269.9,140c-0.4,0.3-1,0.3-1.3,0.3v-0.8c1,0,1.3-0.4,1.4-1.1h0.8v7.2h-0.9L269.9,140L269.9,140z"/>
		<path class="st0" d="M270.9,145.8h-1.1v-5.5c-0.3,0.2-0.7,0.2-1.2,0.2l-0.1,0v-1l0.1,0c1,0,1.2-0.4,1.3-1l0-0.1h1V145.8z
			 M270,145.5h0.6v-6.9h-0.5c-0.1,0.7-0.5,1-1.4,1.1v0.5c0.5,0,0.9-0.1,1.1-0.3l0,0h0.2V145.5z"/>
	</g>
	<g>
		<path class="st0" d="M276.1,145c1.2,0,1.6-1.4,1.6-2.7c-0.3,0.6-1,0.9-1.7,0.9c-1.3,0-2.2-1-2.2-2.4c0-1.5,1-2.5,2.4-2.5
			c1.8,0,2.4,1.5,2.4,3.4c0,2.4-0.7,4-2.6,4c-1.3,0-1.9-0.8-2.1-1.6l0.9-0.2C274.9,144.7,275.5,145,276.1,145L276.1,145z
			 M274.7,140.8c0,1.2,0.8,1.6,1.4,1.6c0.5,0,1.5-0.4,1.5-1.6c0-0.9-0.5-1.7-1.4-1.7C275.2,139.1,274.7,139.8,274.7,140.8
			L274.7,140.8z"/>
		<path class="st0" d="M275.9,145.9c-1.6,0-2.1-1-2.2-1.7l0-0.1l1.2-0.2l0,0.1c0.2,0.8,0.9,0.9,1.2,0.9c1.1,0,1.3-1.3,1.4-2.1
			c-0.4,0.4-0.9,0.6-1.6,0.6c-1.4,0-2.3-1-2.3-2.5c0-1.6,1-2.6,2.5-2.6c1.7,0,2.5,1.2,2.5,3.5C278.7,144.5,277.8,145.9,275.9,145.9z
			 M274,144.3c0.2,0.6,0.7,1.3,1.9,1.3c1.7,0,2.5-1.3,2.5-3.9c0-2.2-0.8-3.3-2.3-3.3c-1.4,0-2.3,0.9-2.3,2.3c0,1.4,0.8,2.2,2,2.2
			c0.7,0,1.3-0.3,1.6-0.8l0.3-0.5l0,0.6c0,1.8-0.7,2.8-1.7,2.8c-0.5,0-1.2-0.2-1.4-0.9L274,144.3z M276.1,142.6
			c-0.8,0-1.6-0.6-1.6-1.8c0-1.1,0.6-1.9,1.6-1.9c1.1,0,1.6,1,1.6,1.9C277.7,142.1,276.7,142.6,276.1,142.6z M276.2,139.2
			c-1,0-1.3,0.8-1.3,1.6c0,1.2,0.8,1.5,1.3,1.5c0.5,0,1.3-0.4,1.3-1.5C277.4,140,277,139.2,276.2,139.2z"/>
	</g>
</g>
<path class="st1" d="M331.6,4.5l-44.9,150.1L4.5,314V4.5L331.6,4.5z M337.7,0H0v321.8l290.5-164.1L337.7,0z"/>
<g class="st2">
	<path class="st0" d="M27,71h-1.8V53.5h-6v-1.6H33v1.6h-6V71z"/>
</g>
<g class="st2">
	<path class="st0" d="M49.9,69c-1.9,2.2-4.2,2.5-5.7,2.5c-2.3,0-4.3-0.7-5.9-2.6c-1.3-1.6-2.4-4.1-2.4-7.5c0-5.3,2.6-10,8.3-10
		c6.3,0,8.2,5.6,8.2,9.9C52.3,64.2,51.4,67.2,49.9,69z M44.1,53c-4.9,0-6.3,4.8-6.3,8.4c0,3.5,1.4,8.4,6.3,8.4c5.9,0,6.3-7,6.3-8.5
		C50.4,57.9,49,53,44.1,53z"/>
	<path class="st0" d="M74.1,71h-2.2l-7.1-10.3l-4.2,4.2V71h-1.8V51.9h1.8v10.6L71,51.9h2.5l-7.5,7.5L74.1,71z"/>
</g>
<g class="st2">
	<path class="st0" d="M87.3,71h-1.8v-7.9l-7.1-11.2h2.1l5.9,9.5l6.1-9.5h2.2l-7.5,11.2V71z"/>
</g>
<g class="st2">
	<path class="st0" d="M112,69c-1.9,2.2-4.2,2.5-5.7,2.5c-2.3,0-4.3-0.7-5.9-2.6C99,67.3,98,64.8,98,61.4c0-5.3,2.6-10,8.3-10
		c6.3,0,8.2,5.6,8.2,9.9C114.4,64.2,113.5,67.2,112,69z M106.2,53c-4.9,0-6.3,4.8-6.3,8.4c0,3.5,1.4,8.4,6.3,8.4
		c5.9,0,6.3-7,6.3-8.5C112.5,57.9,111.1,53,106.2,53z"/>
</g>
<g class="st2">
	<path class="st0" d="M20.9,19.5h7.3c1.8,0,3.9,0.1,6.1,1.6c3.4,2.4,3.9,6.5,3.9,8.8c0,3.5-1.2,7.1-4.2,8.8c-2,1.2-4.2,1.2-6.6,1.2
		h-6.6V19.5z M24.7,23v13.5h1.6c2.9,0,3.9-0.1,4.8-0.5c1.5-0.6,3-1.9,3-6.1c0-1.9-0.3-5.1-3.1-6.4C29.9,23,29.3,23,26.7,23H24.7z"/>
</g>
<g class="st2">
	<path class="st0" d="M47.7,22.9v4.8h9.9V31h-9.9v5.5h11.5V40H43.9V19.5h14.6v3.4H47.7z"/>
</g>
<g class="st2">
	<path class="st0" d="M67.2,33.9c0.5,0.8,2,3.1,6.4,3.1c0.7,0,1.5-0.1,2.2-0.3c1.5-0.6,1.7-1.7,1.7-2.3c0-1.3-0.9-1.8-1.5-2
		c-0.5-0.2-0.5-0.2-2.4-0.6l-2.5-0.5c-1.3-0.3-1.9-0.5-2.6-0.7c-0.9-0.4-3.5-1.6-3.5-5c0-3.9,3.3-6.4,8.1-6.4c4.4,0,6.8,2.2,8.2,4.1
		l-3.1,2.3c-0.7-1-2-3-5.3-3c-2.1,0-3.9,0.9-3.9,2.5c0,1.7,1.9,2,3.8,2.4l2.1,0.5c2.8,0.6,6.6,1.7,6.6,6.1c0,4.7-4.4,6.6-8.7,6.6
		c-1.1,0-2.4-0.1-3.7-0.5c-1.4-0.4-3.8-1.4-5.3-3.9L67.2,33.9z"/>
</g>
<g class="st2">
	<path class="st0" d="M91.6,19.5V40h-3.8V19.5H91.6z"/>
	<path class="st0" d="M115.8,28.8V40h-3.3v-1.7c-1.8,1.8-3.9,2.3-5.6,2.3c-6.3,0-9.7-5-9.7-10.6c0-6.4,4.3-11,9.9-11
		c4.3,0,7.4,2.6,8.6,6l-3.7,1.5c-0.4-1.1-1.5-4.1-5-4.1c-3.9,0-5.7,3.4-5.7,7.4c0,4.5,2.5,7.1,5.8,7.1c2.1,0,4.7-1.1,5-4.8h-5.1
		v-3.4H115.8z"/>
</g>
<g class="st2">
	<path class="st0" d="M134.8,19.5h3.8V40h-3.3l-9-14.4l0.2,14.4h-3.7V19.5h3.5l9,14.5L134.8,19.5z"/>
	<path class="st0" d="M156,36h-7.7l-1.2,4h-4.1l6.9-20.5h4.4l7,20.5h-4.1L156,36z M155,32.6l-2.8-9.4l-2.8,9.4H155z"/>
	<path class="st0" d="M165.9,19.5h6.5c2.7,0,4.6,0,6.4,1.5c1.3,1,2.3,2.7,2.3,5c0,3.9-2.9,5.3-4,5.6l4.6,8.3h-4.4l-4.1-7.6h-3.4V40
		h-3.8V19.5z M169.7,22.8v6.4h1.3c1.3,0,1.8,0,2.5-0.1c0.8,0,3.6-0.2,3.6-3.2c0-0.4,0-1.9-1.6-2.8c-0.8-0.4-1.8-0.4-4.1-0.4H169.7z"
		/>
</g>
<g class="st2">
	<path class="st0" d="M202.8,23h-5.7v17h-3.8V23h-5.5v-3.5h15V23z"/>
</g>
</svg>
