<?xml version="1.0" encoding="utf-8"?>
<!-- Generator: Adobe Illustrator 20.1.0, SVG Export Plug-In . SVG Version: 6.00 Build 0)  -->
<svg version="1.1" id="レイヤー_1" xmlns="http://www.w3.org/2000/svg" xmlns:xlink="http://www.w3.org/1999/xlink" x="0px"
	 y="0px" viewBox="0 0 288 170.9" style="enable-background:new 0 0 288 170.9;" xml:space="preserve">
<style type="text/css">
	.st0{fill:#C9AA82;}
	.st1{fill:#C9AA82;stroke:#C9AA82;stroke-width:0.6738;stroke-miterlimit:10;}
	.st2{fill:#5B5858;}
	.st3{fill:none;stroke:#C9AA82;stroke-width:2.1491;stroke-miterlimit:10;}
</style>
<g>
	<path class="st0" d="M41.2,59.7c1.6,0,3.4,0.1,5.3,1.4c3,2.1,3.4,5.6,3.4,7.7c0,3.1-1,6.1-3.6,7.7c-1.8,1-3.6,1.1-5.7,1.1h-5.7
		V59.7H41.2z M38.1,74.5h1.4c2.5,0,3.4-0.1,4.2-0.4c1.3-0.5,2.7-1.6,2.7-5.3c0-1.7-0.3-4.4-2.7-5.5c-0.9-0.5-1.5-0.5-3.7-0.5h-1.8
		L38.1,74.5L38.1,74.5z"/>
	<g>
		<path class="st0" d="M59.9,62.7v4.2h8.5v2.9h-8.5v4.7h10v3H56.7V59.7h12.7v3H59.9z"/>
		<path class="st0" d="M82.1,69.8c-1.1-0.3-1.7-0.4-2.2-0.6c-0.8-0.4-3-1.4-3-4.3c0-3.3,2.9-5.5,7-5.5c3.8,0,5.9,1.8,7.1,3.6l-2.7,2
			c-0.6-0.9-1.8-2.7-4.6-2.7c-1.8,0-3.3,0.8-3.3,2.1c0,1.5,1.7,1.8,3.2,2.1l1.8,0.4c2.4,0.6,5.7,1.5,5.7,5.3c0,4.1-3.8,5.7-7.6,5.7
			c-1,0-2.1-0.1-3.1-0.4c-1.2-0.4-3.2-1.2-4.6-3.3l2.8-1.9c0.5,0.6,1.8,2.7,5.5,2.7c0.6,0,1.3-0.1,1.9-0.3c1.3-0.6,1.5-1.5,1.5-2
			c0-1.1-0.7-1.6-1.3-1.8c-0.4-0.2-0.5-0.2-2-0.6L82.1,69.8z"/>
		<path class="st0" d="M99.2,77.5V59.7h3.2v17.8H99.2z"/>
		<path class="st0" d="M122.7,76c-1.6,1.6-3.3,1.9-4.8,1.9c-5.5,0-8.4-4.3-8.4-9.2c0-5.5,3.7-9.5,8.6-9.5c3.7,0,6.4,2.2,7.5,5.3
			l-3.1,1.3c-0.4-1-1.3-3.5-4.3-3.5c-3.3,0-5,3-5,6.4c0,3.9,2.1,6.1,5,6.1c1.8,0,4.1-1,4.3-4.2H118v-3h7.5v9.7h-2.9L122.7,76
			L122.7,76z"/>
		<path class="st0" d="M144.6,77.5L136.8,65l0.2,12.5h-3.2V59.7h3l7.9,12.6l-0.4-12.6h3.2v17.8H144.6z"/>
		<path class="st0" d="M166.9,77.5l-1-3.5h-6.7l-1,3.5h-3.5l6-17.8h3.8l6.1,17.8H166.9z M164.9,71.1l-2.4-8.1l-2.5,8.1H164.9z"/>
		<path class="st0" d="M182.6,59.7c2.4,0,4,0,5.5,1.3c1.1,0.9,1.9,2.3,1.9,4.3c0,3.4-2.5,4.6-3.5,4.9l4,7.2h-3.8l-3.5-6.6h-3v6.6
			h-3.3V59.7H182.6z M180.3,68.1h1.2c1.1,0,1.6,0,2.2-0.1c0.7,0,3.1-0.2,3.1-2.8c0-0.4,0-1.7-1.4-2.4c-0.7-0.4-1.6-0.4-3.5-0.4h-1.7
			L180.3,68.1L180.3,68.1z"/>
		<path class="st0" d="M204.2,62.8v14.7h-3.3V62.8h-4.8v-3.1h13v3.1H204.2z"/>
	</g>
</g>
<g>
	<path class="st1" d="M35.6,94c-0.2-0.4-0.6-1.4-0.6-2.8c0-3,2.2-4.9,5.5-4.9c3.7,0,5.6,2.4,5.6,5.4c0,2.6-1.6,4.5-3.1,6.1
		c-2.2,2.2-5.2,4.1-5.8,4.4h8.4v1.2H35.1v-1.3l0.4-0.2c1-0.6,2.7-1.8,4.9-3.6c2.1-1.8,4.3-3.7,4.3-6.8c0-2.7-1.9-4-4.2-4
		c-2.8,0-4.1,2-4.1,3.8c0,1.5,0.8,2.5,1.2,2.9L35.6,94z"/>
	<path class="st1" d="M64.7,95.4c-0.1,4.3-1.8,8.3-5.9,8.3c-4.4,0-5.8-4.6-5.8-8.7c0-4.9,1.9-8.8,5.9-8.8
		C63.7,86.4,64.7,91.8,64.7,95.4z M54.5,95.1c0,1.4,0.2,4.1,1.2,5.6c0.7,1.2,1.8,1.8,3.1,1.8c4,0,4.3-5.1,4.3-7
		c0.1-4.6-1.5-7.8-4.3-7.8S54.5,90.9,54.5,95.1z"/>
	<path class="st1" d="M74,103.5V89.9c-0.6,0.5-1.6,0.6-3.1,0.6v-1.3c3.1-0.1,3.1-1.8,3.1-2.6h1.5v16.8H74V103.5z"/>
	<path class="st1" d="M93.6,88.1c-4.4,6-5.4,10.5-5.9,15.4h-1.6c0.5-7.4,4.2-12.6,6.1-15.4h-8v3.7h-1.4v-5.2h10.6L93.6,88.1
		L93.6,88.1z"/>
</g>
<g>
	<path class="st2" d="M35.1,41.3h3.4c0.8,0,1.8,0,2.8,0.7c1.6,1.1,1.8,3.1,1.8,4.1c0,1.7-0.6,3.2-1.9,4.1c-0.9,0.6-1.9,0.6-3.1,0.6
		H35L35.1,41.3L35.1,41.3z M36.8,42.9v6.3h0.7c1.4,0,1.8-0.1,2.2-0.2c0.6-0.3,1.4-0.8,1.4-2.9c0-0.9-0.1-2.3-1.5-3
		c-0.6-0.3-0.8-0.3-1.9-0.3C37.7,42.9,36.8,42.9,36.8,42.9z"/>
	<path class="st2" d="M47.4,42.9v2.2h4.5v1.6h-4.5v2.5h5.4v1.6h-7v-9.4h6.8V43L47.4,42.9L47.4,42.9z"/>
	<path class="st2" d="M55.8,48c0.2,0.4,0.9,1.5,3,1.5c0.4,0,0.6,0,1-0.2c0.6-0.3,0.8-0.7,0.8-1.1c0-0.6-0.4-0.8-0.7-0.9
		c-0.2-0.1-0.3-0.1-1.1-0.3l-1.1-0.3c-0.6-0.1-0.9-0.2-1.2-0.4c-0.5-0.2-1.6-0.7-1.6-2.3c0-1.8,1.5-3,3.7-3c2,0,3.1,1,3.8,1.9
		L60.9,44c-0.3-0.5-0.9-1.4-2.5-1.4c-0.9,0-1.8,0.5-1.8,1.1c0,0.8,0.9,0.9,1.8,1.1l1,0.2c1.3,0.3,3.1,0.8,3.1,2.8
		c0,2.1-2,3.1-4.1,3.1c-0.6,0-1.1-0.1-1.7-0.2c-0.6-0.2-1.8-0.6-2.5-1.8L55.8,48z"/>
	<path class="st2" d="M66.7,41.3v9.4h-1.8v-9.4C64.9,41.3,66.7,41.3,66.7,41.3z"/>
	<path class="st2" d="M78.1,45.6v5.2h-1.5V50c-0.8,0.8-1.8,1-2.6,1c-3,0-4.4-2.3-4.4-4.9c0-3,1.9-5.1,4.5-5.1c1.9,0,3.4,1.2,4,2.8
		l-1.7,0.6c-0.2-0.6-0.6-1.8-2.3-1.8c-1.8,0-2.7,1.6-2.7,3.4c0,2,1.1,3.2,2.7,3.2c1,0,2.1-0.6,2.3-2.2H74v-1.6h4.1V45.6z"/>
	<path class="st2" d="M86.6,41.3h1.8v9.4h-1.6L82.6,44l0.1,6.7h-1.8v-9.4h1.6l4.2,6.7L86.6,41.3z"/>
	<path class="st2" d="M103.1,46.4c-0.2,1.1-0.6,2.1-1.1,2.7c0.2,0.2,0.4,0.4,0.9,0.4c0.1,0,0.2,0,0.3,0v1.3c-0.4,0-0.5,0-0.6,0
		c-0.9,0-1.4-0.3-1.7-0.6c-0.6,0.4-1.2,0.7-2.3,0.7c-2.4,0-3-1.7-3-2.7c0-1.4,0.9-2.1,2-2.8c-0.2-0.3-0.4-0.6-0.4-1.4
		c0-1.4,1-2.2,2.2-2.2c1.4,0,2.2,1,2.2,2c0,0.6-0.4,1.7-1.8,2.1c0.2,0.3,1.1,1.7,1.2,1.8c0.4-0.6,0.5-1,0.5-1.5
		C101.6,46.4,103.1,46.4,103.1,46.4z M98.4,46.7c-0.6,0.4-1.2,0.7-1.2,1.5s0.6,1.4,1.5,1.4c0.2,0,0.7,0,1.3-0.6L98.4,46.7z
		 M100.3,43.9c0-0.4-0.3-0.7-0.7-0.7c-0.4,0-0.7,0.3-0.7,0.7s0.2,0.6,0.4,1C99.6,44.7,100.3,44.6,100.3,43.9z"/>
	<path class="st2" d="M115.4,48.9h-3.5l-0.6,1.8h-1.8l3.2-9.4h2l3.2,9.4h-1.8L115.4,48.9z M115,47.4l-1.3-4.3l-1.3,4.3H115z"/>
	<path class="st2" d="M120.1,41.3h3.1c1.3,0,2.1,0,3,0.6c0.6,0.5,1,1.2,1,2.3c0,1.8-1.3,2.4-1.8,2.6l2.1,3.9h-2l-1.8-3.5h-1.6v3.5
		h-1.8L120.1,41.3L120.1,41.3z M121.8,42.9v3h0.6c0.6,0,0.8,0,1.2,0c0.4,0,1.7-0.1,1.7-1.5c0-0.2,0-0.9-0.7-1.3
		c-0.4-0.2-0.8-0.2-1.8-0.2H121.8z"/>
	<path class="st2" d="M136,42.9h-2.6v7.9h-1.8v-7.9H129v-1.6h6.9v1.6H136z"/>
	<path class="st2" d="M144.7,45.3h4v1.5h-4v4h-1.8v-9.4h6.3V43h-4.5V45.3L144.7,45.3z"/>
	<path class="st2" d="M153.2,42.9v2.2h4.5v1.6h-4.5v2.5h5.4v1.6h-7v-9.4h6.8V43L153.2,42.9L153.2,42.9z"/>
	<path class="st2" d="M161.6,48c0.2,0.4,0.9,1.5,3,1.5c0.4,0,0.6,0,1-0.2c0.6-0.3,0.8-0.7,0.8-1.1c0-0.6-0.4-0.8-0.7-0.9
		c-0.2-0.1-0.3-0.1-1.1-0.3l-1.1-0.3c-0.6-0.1-0.9-0.2-1.2-0.4c-0.5-0.2-1.6-0.7-1.6-2.3c0-1.8,1.5-3,3.7-3c2,0,3.1,1,3.8,1.9
		l-1.5,1.1c-0.3-0.5-0.9-1.4-2.5-1.4c-0.9,0-1.8,0.5-1.8,1.1c0,0.8,0.9,0.9,1.8,1.1l1,0.2c1.3,0.3,3.1,0.8,3.1,2.8
		c0,2.1-2,3.1-4.1,3.1c-0.6,0-1.1-0.1-1.7-0.2c-0.6-0.2-1.8-0.6-2.5-1.8L161.6,48z"/>
	<path class="st2" d="M177,42.9h-2.6v7.9h-1.8v-7.9H170v-1.6h6.9v1.6H177z"/>
	<path class="st2" d="M181.1,41.3v9.4h-1.8v-9.4C179.3,41.3,181.1,41.3,181.1,41.3z"/>
	<path class="st2" d="M191.2,41.3l-2.7,9.4h-2.4l-2.8-9.4h1.8l2.1,7.5l2-7.5C189.3,41.3,191.2,41.3,191.2,41.3z"/>
	<path class="st2" d="M198.4,48.9h-3.5l-0.6,1.8h-1.8l3.2-9.4h2l3.2,9.4h-1.8L198.4,48.9z M197.9,47.4l-1.3-4.3l-1.3,4.3H197.9z"/>
	<path class="st2" d="M204.9,49.2h3.8v1.6h-5.5v-9.4h1.8v7.8H204.9z"/>
</g>
<polygon class="st3" points="1.3,2.1 1.3,168.9 285.1,92.5 236,2.1 "/>
</svg>
