<?xml version="1.0" encoding="utf-8"?>
<!-- Generator: Adobe Illustrator 20.1.0, SVG Export Plug-In . SVG Version: 6.00 Build 0)  -->
<svg version="1.1" id="レイヤー_1" xmlns="http://www.w3.org/2000/svg" xmlns:xlink="http://www.w3.org/1999/xlink" x="0px"
	 y="0px" viewBox="0 0 314.6 305.8" style="enable-background:new 0 0 314.6 305.8;" xml:space="preserve">
<style type="text/css">
	.st0{fill:#C9AA82;}
	.st1{fill:#C9AA82;stroke:#C9AA82;stroke-width:0.2835;stroke-miterlimit:10;}
</style>
<g>
	<path class="st0" d="M25.8,16.6c1.8,0,4.1,0.1,6.3,1.7c3.5,2.5,4.1,6.8,4.1,9.1c0,3.6-1.2,7.3-4.4,9.1c-2.1,1.2-4.3,1.3-6.8,1.3
		h-6.8V16.6H25.8z M22.1,34.3h1.7c3,0,4.1-0.2,5-0.5c1.5-0.6,3.2-1.9,3.2-6.3c0-2-0.3-5.3-3.2-6.6c-1.1-0.5-1.8-0.6-4.4-0.6h-2.1
		V34.3z"/>
	<g>
		<path class="st0" d="M48.2,20.2v5h10.2v3.4H48.2v5.7h11.9v3.6H44.3V16.6h15.1v3.5H48.2z"/>
		<path class="st0" d="M74.6,28.7c-1.3-0.3-2-0.5-2.7-0.7c-1-0.4-3.6-1.7-3.6-5.2c0-4,3.4-6.6,8.4-6.6c4.6,0,7,2.2,8.5,4.3l-3.2,2.4
			c-0.7-1-2.1-3.1-5.5-3.1c-2.1,0-4,1-4,2.6c0,1.8,2,2.1,3.9,2.5l2.2,0.5c2.9,0.6,6.9,1.8,6.9,6.3c0,4.9-4.5,6.8-9,6.8
			c-1.2,0-2.5-0.1-3.8-0.5c-1.4-0.4-3.9-1.4-5.5-4l3.3-2.3c0.5,0.8,2.1,3.2,6.6,3.2c0.8,0,1.5-0.1,2.3-0.4c1.5-0.6,1.8-1.7,1.8-2.4
			c0-1.3-0.9-1.8-1.6-2.1c-0.5-0.2-0.5-0.2-2.5-0.7L74.6,28.7z"/>
		<path class="st0" d="M95,37.9V16.6h3.9v21.2H95z"/>
		<path class="st0" d="M123.1,36c-1.9,1.9-4,2.3-5.8,2.3c-6.6,0-10-5.2-10-10.9c0-6.7,4.4-11.4,10.2-11.4c4.4,0,7.7,2.7,8.9,6.2
			l-3.8,1.5c-0.4-1.2-1.5-4.2-5.1-4.2c-4,0-5.9,3.5-5.9,7.7c0,4.7,2.6,7.3,6,7.3c2.2,0,4.9-1.2,5.2-4.9h-5.3v-3.5h8.9v11.6h-3.4V36z
			"/>
		<path class="st0" d="M149.2,37.9L139.9,23l0.2,14.9h-3.9V16.6h3.6l9.4,15l-0.5-15h3.9v21.2H149.2z"/>
		<path class="st0" d="M175.7,37.9l-1.2-4.1h-8l-1.2,4.1h-4.2l7.2-21.2h4.5l7.2,21.2H175.7z M173.5,30.3l-2.9-9.8l-2.9,9.8H173.5z"
			/>
		<path class="st0" d="M194.6,16.6c2.8,0,4.7,0,6.6,1.5c1.3,1.1,2.4,2.8,2.4,5.2c0,4.1-3,5.5-4.2,5.8l4.7,8.6h-4.5l-4.2-7.9h-3.5
			v7.9h-3.9V16.6H194.6z M191.7,26.7h1.4c1.3,0,1.8,0,2.6-0.1c0.9,0,3.7-0.2,3.7-3.3c0-0.4,0-2-1.7-2.9c-0.8-0.4-1.9-0.5-4.2-0.5
			h-1.8V26.7z"/>
		<path class="st0" d="M220.4,20.3v17.6h-4V20.3h-5.7v-3.6h15.6v3.6H220.4z"/>
	</g>
</g>
<path class="st0" d="M314.6,304.8L240.9,0H0v208.4L314.6,304.8z M5.1,5.1h231.8l70.7,292.3L5.1,204.6V5.1z"/>
<g>
	<g>
		<path class="st1" d="M204.1,233.5c0.6,0,1.4,0,2.1,0.6c1.2,0.8,1.4,2.2,1.4,3c0,1.2-0.4,2.4-1.4,3c-0.7,0.4-1.4,0.4-2.3,0.4h-2.3
			v-7.1H204.1z M202.9,239.4h0.6c1,0,1.4-0.1,1.7-0.2c0.5-0.2,1.1-0.6,1.1-2.1c0-0.7-0.1-1.8-1.1-2.2c-0.4-0.2-0.6-0.2-1.5-0.2h-0.7
			V239.4z"/>
		<path class="st1" d="M212,234.7v1.7h3.4v1.1H212v1.9h4v1.2h-5.3v-7.1h5v1.2H212z"/>
		<path class="st1" d="M220.9,237.5c-0.5-0.1-0.7-0.2-0.9-0.2c-0.3-0.1-1.2-0.6-1.2-1.7c0-1.3,1.1-2.2,2.8-2.2
			c1.5,0,2.3,0.8,2.8,1.4l-1.1,0.8c-0.2-0.4-0.7-1.1-1.8-1.1c-0.7,0-1.3,0.3-1.3,0.9c0,0.6,0.7,0.7,1.3,0.8l0.7,0.2
			c1,0.2,2.3,0.6,2.3,2.1c0,1.6-1.5,2.3-3,2.3c-0.4,0-0.8,0-1.3-0.2c-0.5-0.1-1.3-0.5-1.8-1.3l1.1-0.8c0.2,0.3,0.7,1.1,2.2,1.1
			c0.2,0,0.5,0,0.8-0.1c0.5-0.2,0.6-0.6,0.6-0.8c0-0.4-0.3-0.6-0.5-0.7c-0.2-0.1-0.2-0.1-0.8-0.2L220.9,237.5z"/>
		<path class="st1" d="M227.6,240.6v-7.1h1.3v7.1H227.6z"/>
		<path class="st1" d="M237.5,240c-0.6,0.6-1.3,0.8-1.9,0.8c-2.2,0-3.3-1.7-3.3-3.6c0-2.2,1.5-3.8,3.4-3.8c1.5,0,2.5,0.9,3,2.1
			l-1.3,0.5c-0.1-0.4-0.5-1.4-1.7-1.4c-1.3,0-2,1.2-2,2.6c0,1.5,0.9,2.4,2,2.4c0.7,0,1.6-0.4,1.7-1.6h-1.8v-1.2h3v3.9h-1.1V240z"/>
		<path class="st1" d="M246.4,240.6l-3.1-4.9l0.1,4.9h-1.3v-7.1h1.2l3.1,5l-0.2-5h1.3v7.1H246.4z"/>
		<path class="st0" d="M256.5,240.7c-0.7,0-1-0.3-1.5-0.9c-0.2,0.4-0.9,0.9-1.9,0.9c-1.4,0-2.2-0.9-2.2-2c0-0.4,0.1-0.9,0.5-1.4
			c0.3-0.4,0.6-0.6,1.3-1.1c-0.2-0.2-0.6-0.8-0.6-1.5c0-0.8,0.5-1.4,1.4-1.4c0.8,0,1.4,0.5,1.4,1.2c0,0.4-0.1,0.7-0.3,1
			c-0.3,0.4-0.6,0.6-1,0.9c0.3,0.4,1.1,1.7,1.5,2.2c0.2-0.6,0.2-1,0.3-1.3h0.6c0,0.3-0.1,1.1-0.5,1.8c0.4,0.5,0.4,0.6,0.6,0.7
			c0.3,0.2,0.5,0.2,0.6,0.2V240.7z M251.6,238.7c0,0.8,0.7,1.4,1.5,1.4c0.9,0,1.4-0.6,1.6-0.8c-0.6-0.8-0.6-0.9-0.8-1.2
			c-0.1-0.2-0.7-1.1-0.9-1.3C252.4,237.2,251.6,237.7,251.6,238.7z M252.7,234.8c0,0.4,0.2,0.8,0.5,1.2c0.5-0.3,1.1-0.7,1.1-1.3
			c0-0.3-0.2-0.7-0.7-0.7C252.9,234,252.7,234.5,252.7,234.8z"/>
		<path class="st1" d="M263.7,240.6l-0.4-1.4h-2.6l-0.4,1.4h-1.4l2.4-7.1h1.5l2.4,7.1H263.7z M263,238.1l-1-3.3l-1,3.3H263z"/>
		<path class="st1" d="M270.3,233.5c0.9,0,1.6,0,2.2,0.5c0.4,0.4,0.8,0.9,0.8,1.7c0,1.3-1,1.8-1.4,1.9l1.6,2.9H272l-1.4-2.6h-1.2
			v2.6h-1.3v-7.1H270.3z M269.4,236.9h0.5c0.5,0,0.6,0,0.9,0c0.3,0,1.2-0.1,1.2-1.1c0-0.2,0-0.7-0.6-1c-0.3-0.1-0.6-0.2-1.4-0.2
			h-0.6V236.9z"/>
		<path class="st1" d="M279.2,234.7v5.9h-1.3v-5.9h-1.9v-1.2h5.2v1.2H279.2z"/>
		<path class="st1" d="M224.5,248.7v1.8h3v1.1h-3v3h-1.3v-7.1h4.7v1.2H224.5z"/>
		<path class="st1" d="M232,248.7v1.7h3.4v1.1H232v1.9h4v1.2h-5.3v-7.1h5v1.2H232z"/>
		<path class="st1" d="M240.9,251.5c-0.5-0.1-0.7-0.2-0.9-0.2c-0.3-0.1-1.2-0.6-1.2-1.7c0-1.3,1.1-2.2,2.8-2.2
			c1.5,0,2.3,0.8,2.8,1.4l-1.1,0.8c-0.2-0.4-0.7-1.1-1.8-1.1c-0.7,0-1.3,0.3-1.3,0.9c0,0.6,0.7,0.7,1.3,0.8l0.7,0.2
			c1,0.2,2.3,0.6,2.3,2.1c0,1.6-1.5,2.3-3,2.3c-0.4,0-0.8,0-1.3-0.2c-0.5-0.1-1.3-0.5-1.8-1.3l1.1-0.8c0.2,0.3,0.7,1.1,2.2,1.1
			c0.2,0,0.5,0,0.8-0.1c0.5-0.2,0.6-0.6,0.6-0.8c0-0.4-0.3-0.6-0.5-0.7c-0.2-0.1-0.2-0.1-0.8-0.2L240.9,251.5z"/>
		<path class="st1" d="M250.3,248.7v5.9H249v-5.9h-1.9v-1.2h5.2v1.2H250.3z"/>
		<path class="st1" d="M255.3,254.6v-7.1h1.3v7.1H255.3z"/>
		<path class="st1" d="M261.6,254.6l-2.1-7.1h1.4l1.6,5.6l1.5-5.6h1.4l-2,7.1H261.6z"/>
		<path class="st1" d="M272.4,254.6l-0.4-1.4h-2.6l-0.4,1.4h-1.4l2.4-7.1h1.5l2.4,7.1H272.4z M271.7,252.1l-1-3.3l-1,3.3H271.7z"/>
		<path class="st1" d="M280.9,253.4v1.2h-4.1v-7.1h1.3v5.9H280.9z"/>
		<path class="st1" d="M256.5,264.6c-0.1-0.1-0.2-0.6-0.2-1.2c0-1.3,0.9-2,2.3-2c1.6,0,2.4,1,2.4,2.2c0,1.1-0.7,1.9-1.3,2.6
			c-0.9,0.9-2.2,1.7-2.5,1.8h3.5v0.5h-4.5v-0.5l0.1-0.1c0.4-0.3,1.1-0.7,2.1-1.5c0.9-0.7,1.8-1.6,1.8-2.8c0-1.1-0.8-1.7-1.8-1.7
			c-1.2,0-1.7,0.9-1.7,1.6c0,0.6,0.4,1,0.5,1.2L256.5,264.6z"/>
		<path class="st1" d="M268.6,265.2c0,1.8-0.7,3.5-2.5,3.5c-1.9,0-2.5-1.9-2.5-3.6c0-2.1,0.8-3.7,2.5-3.7
			C268.3,261.4,268.7,263.7,268.6,265.2z M264.4,265.1c0,0.6,0.1,1.7,0.5,2.4c0.3,0.5,0.8,0.7,1.3,0.7c1.7,0,1.8-2.1,1.8-3
			c0-1.9-0.6-3.2-1.8-3.2C264.9,262,264.4,263.3,264.4,265.1z"/>
		<path class="st1" d="M272.6,268.6v-5.7c-0.3,0.2-0.7,0.3-1.3,0.3v-0.5c1.3,0,1.3-0.7,1.3-1.1h0.6v7.1H272.6z"/>
		<path class="st1" d="M280.8,262.1c-1.9,2.5-2.2,4.4-2.5,6.5h-0.7c0.2-3.1,1.7-5.3,2.6-6.5h-3.3v1.6h-0.6v-2.2h4.5V262.1z"/>
	</g>
</g>
</svg>
