<?xml version="1.0" encoding="utf-8"?>
<!-- Generator: Adobe Illustrator 23.0.2, SVG Export Plug-In . SVG Version: 6.00 Build 0)  -->
<svg version="1.1" id="レイヤー_1" xmlns="http://www.w3.org/2000/svg" xmlns:xlink="http://www.w3.org/1999/xlink" x="0px"
	 y="0px" viewBox="0 0 270.8 137.9" style="enable-background:new 0 0 270.8 137.9;" xml:space="preserve">
<style type="text/css">
	.st0{fill:#C1A383;}
	.st1{fill:#C2A283;}
	.st2{enable-background:new    ;}
</style>
<title>logo-header</title>
<g>
	<g id="レイヤー_1-2">
		<path class="st0" d="M208,3.4l56.1,53.2L3.4,133.4V3.4H208 M209.4,0H0v137.9l270.8-79.7L209.4,0z"/>
		<path class="st1" d="M22.2,42.4v13.5h-1.4V42.4h-4.7v-1.2h10.7v1.2H22.2z"/>
		<path class="st1" d="M41.8,48.4c0,2.1-0.6,4.2-1.9,5.9c-1.1,1.3-2.7,2-4.4,1.9c-1.7,0.1-3.4-0.7-4.5-2c-1.3-1.6-1.9-3.7-1.9-5.8
			c0-4.1,2-7.7,6.4-7.7C40.4,40.8,41.8,45.1,41.8,48.4z M30.6,48.5c0,2.7,1.1,6.5,4.8,6.5c4.5,0,4.9-5.4,4.9-6.6
			c0-2.7-1.1-6.5-4.8-6.5S30.6,45.7,30.6,48.5z"/>
		<path class="st1" d="M58.9,55.9h-1.7l-5.5-8l-3.2,3.2v4.8h-1.4V41.1h1.4v8.2l8-8.2h1.9L52.7,47L58.9,55.9z"/>
		<path class="st1" d="M68.9,55.9h-1.3v-6.1l-5.5-8.6h1.6l4.5,7.3l4.7-7.3h1.7l-5.8,8.6v6.1H68.9z"/>
		<path class="st1" d="M90,48.4c0,2.1-0.6,4.2-1.9,5.9c-2.3,2.5-6.2,2.6-8.6,0.3c-0.1-0.1-0.2-0.2-0.4-0.4c-1.3-1.6-1.9-3.7-1.9-5.8
			c0-4.1,2-7.7,6.4-7.7C88.6,40.8,90,45.1,90,48.4z M78.8,48.5c0,2.7,1.1,6.5,4.8,6.5c4.6,0,4.9-5.4,4.9-6.6c0-2.7-1.1-6.5-4.8-6.5
			S78.8,45.7,78.8,48.5L78.8,48.5z"/>
		<path class="st1" d="M22,16.5c1.7-0.1,3.3,0.3,4.7,1.2c2.6,1.9,3,5,3,6.8c0,2.7-0.9,5.5-3.2,6.8c-1.6,0.8-3.3,1.1-5.1,1h-5V16.5
			H22z M19.3,29.7h1.3c1.2,0.1,2.5,0,3.7-0.4c1.1-0.5,2.4-1.4,2.4-4.7c0-1.5-0.2-3.9-2.4-5c-0.9-0.4-1.3-0.4-3.3-0.4h-1.6v10.5H19.3
			z"/>
		<path class="st1" d="M37.1,19.1v3.7h7.6v2.6h-7.6v4.2H46v2.7H34.2V16.5h11.3v2.6H37.1z"/>
		<path class="st1" d="M55.2,25.5c-0.7-0.1-1.4-0.3-2-0.6c-1.6-0.6-2.7-2.2-2.7-3.9c0-3,2.5-4.9,6.3-4.9c2.5-0.1,4.9,1.1,6.4,3.2
			l-2.4,1.8c-0.8-1.5-2.4-2.4-4.1-2.4c-1.6,0-3,0.7-3,1.9s1.5,1.6,2.9,1.9l1.6,0.4c2.1,0.5,5.1,1.3,5.1,4.7c0,3.6-3.4,5.1-6.7,5.1
			c-1,0-1.9-0.1-2.8-0.4c-1.7-0.5-3.1-1.5-4.1-3l2.5-1.8c0.4,0.6,1.6,2.4,4.9,2.4c0.6,0,1.2-0.1,1.7-0.3c0.8-0.2,1.3-0.9,1.4-1.7
			c0-0.7-0.5-1.4-1.2-1.6c-0.6-0.2-1.2-0.4-1.8-0.5L55.2,25.5z"/>
		<path class="st1" d="M68.2,32.3V16.5h2.9v15.8H68.2z"/>
		<path class="st1" d="M87.6,31c-1.1,1.1-2.7,1.8-4.3,1.8c-4.9,0-7.5-3.9-7.5-8.2c0-5,3.3-8.5,7.7-8.5c3,0,5.7,1.8,6.7,4.7l-2.8,1.1
			c-0.4-1.8-2-3.1-3.8-3.1c-3,0-4.4,2.6-4.4,5.7c0,3.5,1.9,5.5,4.5,5.5c2.1,0.1,3.8-1.5,3.9-3.5v-0.1h-4v-2.6H90v8.7h-2.5L87.6,31
			L87.6,31z"/>
		<path class="st1" d="M104.8,32.3l-6.9-11.1l0.2,11.1h-2.9V16.5h2.7l7,11.2l-0.4-11.2h2.9v15.8H104.8z"/>
		<path class="st1" d="M122.6,32.3l-0.9-3.1h-5.9l-0.9,3.1h-3.2l5.4-15.8h3.4l5.4,15.8H122.6z M120.9,26.7l-2.2-7.3l-2.2,7.3H120.9z
			"/>
		<path class="st1" d="M135.1,16.5c2.1,0,3.5,0,4.9,1.1c1.2,1,1.8,2.4,1.8,3.9c0.1,2-1.2,3.8-3.1,4.4l3.5,6.4h-3.4l-3.1-5.9H133v5.9
			h-2.9V16.5H135.1z M133,24h1c1,0,1.4,0,2,0s2.8-0.1,2.8-2.4c0-0.9-0.5-1.7-1.3-2.1c-1-0.3-2.1-0.4-3.1-0.3H133V24z"/>
		<path class="st1" d="M152.8,19.2v13.2h-3V19.2h-4.2v-2.7h11.6v2.7H152.8z"/>
	</g>
</g>
<g class="st2">
	<path class="st1" d="M118.6,54.7V56h-10.1v-1.2c1.8-1.2,2.9-2,4.3-3c1.9-1.4,3.4-2.7,3.4-4.4c0-1.8-1.5-2.9-3-2.9
		c-1.8,0-3.2,1.2-3.2,3.1c0,0.4,0.1,0.6,0.1,0.9l-1.6-0.5c-0.2-3,2.1-4.8,4.7-4.8c3,0,4.5,1.9,4.5,4.1c0,2.8-2.1,4.6-5.8,6.7
		l-1.4,0.8L118.6,54.7z"/>
	<path class="st1" d="M126.6,56.3c-3.8,0-5.5-3.2-5.5-6.6c0-3.7,2.1-6.5,5.7-6.5c3.3,0,5.4,2.5,5.4,6.3
		C132.3,53.9,129.8,56.3,126.6,56.3z M129.6,45.8c-0.6-0.8-1.6-1.3-2.9-1.3c-2.3,0-4.1,1.9-4.1,5.3c0,2.9,1.3,5.3,4.1,5.3
		c0.6,0,1.8-0.1,2.7-1.1c1.1-1.2,1.3-3,1.3-4.3C130.7,48.2,130.5,46.8,129.6,45.8z"/>
	<path class="st1" d="M137.7,46.4c-0.9,0.7-2.2,0.8-3,0.8V46c2.3-0.1,3-0.8,3.2-2.6h1.3V56h-1.5V46.4z"/>
	<path class="st1" d="M145,56c0.3,2.3,2,2.8,3,2.8c1.4,0,2.2-0.6,2.8-1.4c1.4-1.7,1.5-3.9,1.5-5.7c-0.9,1.9-2.7,2.6-4.2,2.6
		c-3.2,0-5-2.5-5-5.6c0-3.2,2-5.5,5.2-5.5c1.1,0,2.6,0.2,3.8,1.6c1.6,1.8,1.7,4.5,1.7,6.4c0,3.1-0.6,6-2.5,7.7
		c-1.1,0.9-2.3,1.2-3.4,1.2c-3.3,0-4.2-2.6-4.4-3.5L145,56z M148.3,53.1c1.8,0,3.9-1.4,3.9-4.1c0-2.2-1.5-4.6-4-4.6
		c-0.9,0-1.8,0.3-2.5,1.1c-0.9,1.1-1,2.4-1,3.4C144.8,52.4,147.1,53.1,148.3,53.1z"/>
</g>
</svg>
