<?xml version="1.0" encoding="utf-8"?>
<!-- Generator: Adobe Illustrator 22.1.0, SVG Export Plug-In . SVG Version: 6.00 Build 0)  -->
<svg version="1.1" id="レイヤー_1" xmlns="http://www.w3.org/2000/svg" xmlns:xlink="http://www.w3.org/1999/xlink" x="0px"
	 y="0px" viewBox="0 0 314.6 305.8" style="enable-background:new 0 0 314.6 305.8;" xml:space="preserve">
<style type="text/css">
	.st0{fill:#C3A384;stroke:#C3A384;stroke-width:0.2609;stroke-miterlimit:10;}
	.st1{fill:#C3A384;}
	.st2{fill:#C2A484;}
	.st3{enable-background:new    ;}
</style>
<g id="レイヤー_2_1_">
	<g id="Layer_1">
		<path class="st0" d="M218.4,232c0.7-0.1,1.4,0.1,2,0.5c0.8,0.7,1.3,1.7,1.3,2.8c0.1,1.1-0.4,2.2-1.4,2.8c-0.7,0.3-1.4,0.5-2.1,0.4
			H216V232H218.4z M217.2,237.4h0.5c0.5,0,1,0,1.5-0.1c0.5-0.2,1-0.6,1-2c0.1-0.8-0.3-1.6-1-2.1c-0.4-0.2-0.9-0.2-1.4-0.2h-0.7
			V237.4z"/>
		<path class="st0" d="M225.7,233.1v1.5h3.2v1h-3.2v1.8h3.7v1.1h-4.9V232h4.7v1.1L225.7,233.1z"/>
		<path class="st0" d="M234,235.7c-0.3-0.1-0.6-0.1-0.8-0.2c-0.7-0.2-1.1-0.9-1.1-1.6c0-1.2,1-2,2.6-2c1,0,2,0.5,2.6,1.3l-1,0.8
			c-0.3-0.6-1-1-1.7-0.9c-0.7,0-1.2,0.3-1.2,0.8s0.6,0.7,1.2,0.8l0.7,0.1c0.9,0.2,2.1,0.5,2.1,2s-1.4,2.1-2.8,2.1
			c-0.4,0-0.8,0-1.2-0.1c-0.7-0.2-1.3-0.6-1.7-1.2l1-0.7c0.4,0.7,1.2,1.1,2,1c0.2,0,0.5,0,0.7-0.1c0.3-0.1,0.6-0.4,0.6-0.8
			c0-0.3-0.2-0.6-0.5-0.7c-0.3-0.1-0.5-0.2-0.8-0.2L234,235.7z"/>
		<path class="st0" d="M240.3,238.6V232h1.2v6.6L240.3,238.6z"/>
		<path class="st0" d="M249.5,238c-0.5,0.5-1.1,0.7-1.8,0.7c-1.7,0-3.1-1.4-3.1-3.1c0-0.1,0-0.2,0-0.3c-0.1-1.8,1.2-3.4,3-3.5
			c0.1,0,0.1,0,0.2,0c1.3,0,2.4,0.8,2.8,1.9l-1.2,0.5c-0.2-0.7-0.8-1.3-1.6-1.3c-1.2,0-1.9,1.1-1.9,2.4c0,1.4,0.8,2.3,1.9,2.3
			c0.9,0,1.6-0.6,1.6-1.5c0,0,0,0,0-0.1h-1.6V235h2.8v3.6h-1L249.5,238z"/>
		<path class="st0" d="M257.8,238.6l-2.9-4.7l0.1,4.7h-1.2V232h1.1l2.9,4.7l-0.1-4.7h1.2v6.6L257.8,238.6z"/>
		<path class="st1" d="M267.2,238.7c-0.7,0-0.9-0.3-1.4-0.9c-0.4,0.6-1.1,0.9-1.8,0.8c-1,0.1-1.9-0.6-2-1.7c0-0.1,0-0.1,0-0.2
			c0-0.5,0.2-0.9,0.4-1.3c0.3-0.4,0.7-0.7,1.2-0.9c-0.3-0.4-0.5-0.9-0.5-1.4c0-0.7,0.5-1.2,1.2-1.3c0.1,0,0.1,0,0.2,0
			c0.6-0.1,1.2,0.4,1.3,1c0,0,0,0.1,0,0.1c0,0.3-0.1,0.7-0.3,0.9c-0.3,0.3-0.6,0.6-0.9,0.8c0.3,0.4,1,1.6,1.4,2.1
			c0.2-0.4,0.2-0.8,0.2-1.2h0.6c0,0.6-0.2,1.1-0.5,1.7c0.1,0.2,0.3,0.4,0.5,0.6c0.1,0.1,0.3,0.2,0.5,0.2L267.2,238.7z M262.6,236.8
			c0,0.8,0.7,1.3,1.4,1.3c0,0,0,0,0,0c0.6,0,1.1-0.3,1.5-0.7c-0.5-0.7-0.6-0.8-0.8-1.1c-0.2-0.3-0.7-1-0.8-1.2
			C263.4,235.4,262.6,235.9,262.6,236.8L262.6,236.8z M263.6,233.2c0,0.4,0.2,0.8,0.4,1.1c0.5-0.2,0.9-0.6,1-1.2
			c0-0.4-0.3-0.7-0.6-0.7c0,0,0,0-0.1,0C264,232.4,263.7,232.7,263.6,233.2C263.7,233.1,263.7,233.1,263.6,233.2L263.6,233.2z"/>
		<path class="st0" d="M273.9,238.6l-0.4-1.3h-2.4l-0.4,1.3h-1.3l2.2-6.6h1.4l2.2,6.6H273.9z M273.2,236.2l-0.9-3l-0.9,3H273.2z"/>
		<path class="st0" d="M280.1,232c0.7-0.1,1.4,0.1,2,0.5c0.5,0.4,0.8,1,0.7,1.6c0,0.8-0.5,1.6-1.3,1.8l1.5,2.7h-1.4l-1.3-2.4h-1.1
			v2.4H278V232H280.1z M279.2,235.1h0.4c0.4,0,0.6,0,0.8,0c0.6,0.1,1.1-0.3,1.1-0.9c0,0,0-0.1,0-0.1c0-0.4-0.2-0.7-0.5-0.9
			c-0.4-0.1-0.9-0.2-1.3-0.1h-0.6V235.1z"/>
		<path class="st0" d="M288.3,233.1v5.5h-1.2v-5.5h-1.8V232h4.8v1.1L288.3,233.1z"/>
		<path class="st0" d="M237.3,246.2v1.7h2.7v1.1h-2.7v2.8h-1.2V245h4.3v1.1L237.3,246.2z"/>
		<path class="st0" d="M244.4,246.2v1.5h3.2v1h-3.2v1.8h3.7v1.1h-4.9V245h4.7v1.1L244.4,246.2z"/>
		<path class="st0" d="M252.7,248.8c-0.3-0.1-0.6-0.1-0.8-0.2c-0.7-0.2-1.1-0.9-1.1-1.6c0-1.2,1-2,2.6-2c1,0,2,0.5,2.6,1.3l-1,0.8
			c-0.3-0.6-1-1-1.7-1c-0.7,0-1.2,0.3-1.2,0.8s0.6,0.7,1.2,0.8l0.7,0.1c0.9,0.2,2.1,0.5,2.1,2s-1.4,2.1-2.8,2.1
			c-0.4,0-0.8,0-1.2-0.1c-0.7-0.2-1.3-0.6-1.7-1.2l1-0.7c0.4,0.7,1.2,1.1,2,1c0.2,0,0.5,0,0.7-0.1c0.3-0.1,0.6-0.4,0.6-0.8
			c0-0.3-0.2-0.6-0.5-0.7c-0.2-0.1-0.5-0.2-0.8-0.2L252.7,248.8z"/>
		<path class="st0" d="M261.5,246.2v5.5h-1.2v-5.5h-1.8V245h4.8v1.1L261.5,246.2z"/>
		<path class="st0" d="M266.1,251.6V245h1.2v6.6L266.1,251.6z"/>
		<path class="st0" d="M271.9,251.6L270,245h1.3l1.5,5.2l1.4-5.2h1.3l-1.9,6.6L271.9,251.6z"/>
		<path class="st0" d="M282,251.6l-0.4-1.3h-2.5l-0.4,1.3h-1.3l2.2-6.6h1.4l2.2,6.6H282z M281.3,249.3l-0.9-3l-0.9,3H281.3z"/>
		<path class="st0" d="M289.9,250.5v1.1H286V245h1.2v5.5L289.9,250.5z"/>
		<path class="st2" d="M259,4.2l50.1,288.6L4.2,160.7V4.2H259 M262.5,0H0v163.4l314.6,136.4L262.5,0z"/>
		<g class="st3">
			<path class="st1" d="M25.2,66.1h-1.7V49.8h-5.6v-1.5h12.9v1.5h-5.6V66.1z"/>
		</g>
		<g class="st3">
			<path class="st1" d="M46.5,64.3c-1.7,2-3.9,2.3-5.3,2.3c-2.2,0-4-0.7-5.5-2.4c-1.3-1.5-2.2-3.8-2.2-6.9c0-4.9,2.4-9.3,7.7-9.3
				c5.9,0,7.6,5.2,7.6,9.2C48.7,59.8,47.9,62.6,46.5,64.3z M41.1,49.4c-4.5,0-5.9,4.5-5.9,7.9c0,3.3,1.3,7.8,5.8,7.8
				c5.5,0,5.9-6.5,5.9-7.9C46.9,53.9,45.6,49.4,41.1,49.4z"/>
			<path class="st1" d="M69.3,66.1h-2.1l-6.6-9.6l-3.9,3.9v5.7H55V48.4h1.7v9.9l9.7-9.9h2.3l-6.9,7L69.3,66.1z"/>
		</g>
		<g class="st3">
			<path class="st1" d="M81.3,66.1h-1.6v-7.3L73,48.4h2l5.5,8.8l5.7-8.8h2l-6.9,10.4V66.1z"/>
		</g>
		<g class="st3">
			<path class="st1" d="M104.3,64.3c-1.7,2-3.9,2.3-5.3,2.3c-2.2,0-4-0.7-5.5-2.4c-1.3-1.5-2.2-3.8-2.2-6.9c0-4.9,2.4-9.3,7.7-9.3
				c5.9,0,7.6,5.2,7.6,9.2C106.5,59.8,105.7,62.6,104.3,64.3z M99,49.4c-4.5,0-5.9,4.5-5.9,7.9c0,3.3,1.3,7.8,5.8,7.8
				c5.5,0,5.9-6.5,5.9-7.9C104.8,53.9,103.5,49.4,99,49.4z"/>
		</g>
		<g class="st3">
			<path class="st1" d="M19.4,18.2h6.8c1.6,0,3.6,0.1,5.6,1.5c3.2,2.2,3.7,6.1,3.7,8.2c0,3.3-1.1,6.6-3.9,8.2
				c-1.9,1.1-3.9,1.2-6.1,1.2h-6.1V18.2z M23,21.4V34h1.5c2.7,0,3.6-0.1,4.5-0.4c1.4-0.5,2.8-1.7,2.8-5.7c0-1.8-0.3-4.7-2.9-6
				c-1-0.5-1.6-0.5-4-0.5H23z"/>
		</g>
		<g class="st3">
			<path class="st1" d="M44.4,21.4v4.5h9.2v3.1h-9.2V34h10.7v3.2H40.9V18.2h13.6v3.2H44.4z"/>
		</g>
		<g class="st3">
			<path class="st1" d="M62.6,31.6c0.5,0.7,1.9,2.9,5.9,2.9c0.7,0,1.4-0.1,2.1-0.3c1.4-0.6,1.6-1.5,1.6-2.2c0-1.2-0.8-1.6-1.4-1.9
				c-0.4-0.2-0.5-0.2-2.2-0.6L66.2,29c-1.2-0.3-1.8-0.4-2.4-0.7c-0.9-0.4-3.2-1.5-3.2-4.7c0-3.6,3.1-5.9,7.5-5.9
				c4.1,0,6.3,2,7.7,3.9l-2.9,2.2c-0.6-0.9-1.9-2.8-4.9-2.8c-1.9,0-3.6,0.9-3.6,2.3c0,1.6,1.8,1.9,3.5,2.3l2,0.4
				c2.6,0.6,6.2,1.6,6.2,5.7c0,4.4-4.1,6.1-8.1,6.1c-1.1,0-2.2-0.1-3.4-0.4c-1.3-0.4-3.5-1.3-4.9-3.6L62.6,31.6z"/>
		</g>
		<g class="st3">
			<path class="st1" d="M85.3,18.2v19.1h-3.5V18.2H85.3z"/>
			<path class="st1" d="M108.2,26.8v10.4h-3.1v-1.6c-1.7,1.7-3.6,2.1-5.2,2.1c-5.9,0-9-4.7-9-9.8c0-6,4-10.2,9.2-10.2
				c4,0,6.9,2.4,8.1,5.6l-3.4,1.4c-0.4-1.1-1.4-3.8-4.6-3.8c-3.6,0-5.4,3.1-5.4,6.9c0,4.2,2.3,6.6,5.4,6.6c2,0,4.4-1.1,4.7-4.4h-4.8
				v-3.1H108.2z"/>
		</g>
		<g class="st3">
			<path class="st1" d="M125.6,18.2h3.5v19.1H126l-8.4-13.4l0.2,13.4h-3.5V18.2h3.2l8.4,13.5L125.6,18.2z"/>
			<path class="st1" d="M146.2,33.5h-7.2l-1.1,3.7h-3.8l6.4-19.1h4.1l6.5,19.1h-3.8L146.2,33.5z M145.3,30.4l-2.6-8.8l-2.6,8.8
				H145.3z"/>
			<path class="st1" d="M156.3,18.2h6.1c2.5,0,4.2,0,5.9,1.4c1.2,1,2.1,2.5,2.1,4.7c0,3.6-2.7,4.9-3.8,5.2l4.2,7.8h-4.1l-3.8-7.1
				h-3.2v7.1h-3.5V18.2z M159.9,21.2v6h1.2c1.2,0,1.7,0,2.4-0.1c0.8,0,3.4-0.2,3.4-2.9c0-0.4,0-1.8-1.5-2.6
				c-0.8-0.4-1.7-0.4-3.8-0.4H159.9z"/>
		</g>
		<g class="st3">
			<path class="st1" d="M188.9,21.4h-5.3v15.8h-3.6V21.4h-5.2v-3.2h14V21.4z"/>
		</g>
	</g>
</g>
</svg>
