<svg xmlns="http://www.w3.org/2000/svg" viewBox="0 0 270.78 137.92"><defs><style>.cls-1{fill:#c1a383;}.cls-2{fill:#c2a283;}</style></defs><title>logo-header</title><g id="レイヤー_2" data-name="レイヤー 2"><g id="レイヤー_1-2" data-name="レイヤー 1"><path class="cls-1" d="M208,3.4l56.15,53.23L3.4,133.38V3.4H208M209.36,0H0V137.92l270.78-79.7L209.36,0Z"/><path class="cls-2" d="M22.18,42.38V55.91h-1.4V42.38H16.13V41.15H26.84v1.23Z"/><path class="cls-2" d="M41.78,48.42a9.64,9.64,0,0,1-1.88,5.94,5.51,5.51,0,0,1-4.43,1.92,5.55,5.55,0,0,1-4.54-2,8.79,8.79,0,0,1-1.86-5.77c0-4.08,2-7.74,6.4-7.74C40.36,40.77,41.8,45.08,41.78,48.42Zm-11.22.11c0,2.74,1.08,6.5,4.85,6.5,4.55,0,4.87-5.4,4.87-6.59,0-2.67-1.07-6.46-4.81-6.46S30.56,45.71,30.56,48.53Z"/><path class="cls-2" d="M58.94,55.91H57.23l-5.52-8-3.22,3.24v4.75H47.07V41.15h1.42v8.23l8-8.23h1.92L52.67,47Z"/><path class="cls-2" d="M68.93,55.91H67.58V49.8l-5.5-8.65h1.63l4.55,7.34L73,41.15H74.7L68.93,49.8Z"/><path class="cls-2" d="M90,48.42a9.64,9.64,0,0,1-1.88,5.94,6.11,6.11,0,0,1-9-.08,8.79,8.79,0,0,1-1.86-5.77c0-4.08,2-7.74,6.4-7.74C88.56,40.77,90,45.08,90,48.42Zm-11.22.11c0,2.74,1.08,6.5,4.85,6.5,4.55,0,4.87-5.4,4.87-6.59,0-2.67-1.07-6.46-4.81-6.46S78.76,45.71,78.76,48.53Z"/><path class="cls-2" d="M106.47,47.59a6.43,6.43,0,0,1-.52-2.45c0-2.63,2-4.28,4.85-4.28,3.28,0,5,2.09,5,4.7,0,2.23-1.38,4-2.78,5.33a28.41,28.41,0,0,1-5.13,3.87h7.43v1.15H106V54.76l.29-.19a40.19,40.19,0,0,0,4.35-3.16c1.88-1.54,3.81-3.28,3.81-5.91a3.64,3.64,0,0,0-7.26-.21,3.85,3.85,0,0,0,1,2.5Z"/><path class="cls-2" d="M130.74,48.82c-.08,3.72-1.55,7.36-5.2,7.36-3.87,0-5.17-4.06-5.17-7.63,0-4.29,1.67-7.69,5.23-7.69C129.93,40.86,130.8,45.68,130.74,48.82Zm-9-.31a10.58,10.58,0,0,0,1.07,5A3.06,3.06,0,0,0,125.56,55c3.47,0,3.76-4.46,3.78-6.21.06-4-1.28-6.8-3.78-6.8S121.77,44.89,121.77,48.51Z"/><path class="cls-2" d="M138.49,55.91v-12a4.28,4.28,0,0,1-2.67.58V43.38c2.7-.06,2.7-1.54,2.67-2.23h1.28V55.91Z"/><path class="cls-2" d="M155.72,44.66A3.38,3.38,0,0,1,153.17,48a4,4,0,0,1,3,3.82c0,2.2-1.66,4.33-5.08,4.33-3.75,0-5.23-2.39-5.23-4.41a4,4,0,0,1,2.86-3.7,1.46,1.46,0,0,0,.17,0,.69.69,0,0,0-.19-.07,3.51,3.51,0,0,1-2.28-3.22c0-2.15,1.68-3.88,4.6-3.88S155.72,42.49,155.72,44.66Zm-8.49,7.11c0,1.84,1.46,3.22,3.76,3.22,2.49,0,3.72-1.49,3.77-3.14,0-2.22-1.93-3.2-3.79-3.2S147.23,49.68,147.23,51.77Zm.48-7c0,1.46,1.28,2.71,3.35,2.71s3.34-1.25,3.32-2.78a2.5,2.5,0,0,0-1-2A3.77,3.77,0,0,0,151,42C148.57,42,147.71,43.51,147.71,44.79Z"/><path class="cls-2" d="M22,16.5a7.42,7.42,0,0,1,4.69,1.23c2.65,1.87,3,5.05,3,6.83,0,2.71-.92,5.47-3.25,6.82a9.55,9.55,0,0,1-5.1,1H16.32V16.5ZM19.28,29.67h1.26a10.84,10.84,0,0,0,3.7-.35c1.15-.45,2.36-1.44,2.36-4.74,0-1.48-.23-3.93-2.43-5-.85-.41-1.32-.43-3.32-.43H19.28Z"/><path class="cls-2" d="M37.08,19.15v3.72h7.63v2.56H37.08v4.24H46v2.68H34.17V16.5H45.43v2.65Z"/><path class="cls-2" d="M55.18,25.48a12.5,12.5,0,0,1-2-.56A4.05,4.05,0,0,1,50.51,21c0-3,2.54-4.94,6.26-4.94a7.46,7.46,0,0,1,6.38,3.21l-2.43,1.82a4.61,4.61,0,0,0-4.1-2.35c-1.6,0-3,.71-3,1.93s1.48,1.57,2.92,1.88l1.64.36c2.13.47,5.14,1.33,5.14,4.71,0,3.64-3.37,5.1-6.74,5.1a10.66,10.66,0,0,1-2.83-.36,7.12,7.12,0,0,1-4.1-3l2.49-1.75c.38.59,1.57,2.4,4.91,2.4a4.41,4.41,0,0,0,1.71-.27A1.88,1.88,0,0,0,60.12,28a1.64,1.64,0,0,0-1.19-1.58,10.8,10.8,0,0,0-1.84-.49Z"/><path class="cls-2" d="M68.16,32.35V16.5h2.91V32.35Z"/><path class="cls-2" d="M87.55,31a6,6,0,0,1-4.33,1.75c-4.9,0-7.48-3.91-7.48-8.17,0-5,3.3-8.49,7.66-8.49a7,7,0,0,1,6.69,4.67l-2.83,1.15a4,4,0,0,0-3.84-3.14c-3,0-4.44,2.6-4.44,5.72C79,28,80.88,30,83.46,30a3.73,3.73,0,0,0,3.91-3.68h-4V23.68h6.67v8.67H87.55Z"/><path class="cls-2" d="M104.84,32.35,97.9,21.24l.18,11.11H95.19V16.5h2.67l7,11.2-.36-11.2h2.92V32.35Z"/><path class="cls-2" d="M122.59,32.35l-.92-3.1h-5.94l-.92,3.1h-3.17L117,16.5h3.37l5.41,15.85Zm-1.7-5.68-2.18-7.3-2.2,7.3Z"/><path class="cls-2" d="M135.1,16.5c2.11,0,3.53,0,4.92,1.14a4.86,4.86,0,0,1,1.75,3.91,4.33,4.33,0,0,1-3.12,4.35l3.52,6.45h-3.39l-3.14-5.89H133v5.89h-2.94V16.5ZM133,24h1c1,0,1.4,0,2-.05s2.78-.13,2.78-2.44a2.27,2.27,0,0,0-1.26-2.14,7.39,7.39,0,0,0-3.14-.33H133Z"/><path class="cls-2" d="M152.75,19.19V32.35h-3V19.19H145.5V16.5h11.62v2.69Z"/></g></g></svg>